Patient4_TMGait_0pt5_02_right_24_EMG.mot
version=1
nRows=23
nColumns=33
inDegrees=no
endheader
time	1LAddLong	2LGlutMax	3LGlutMed	4LIliopsoas	5LSemiMemb	6LBicFemLong	7LRecFem	8LVastMed	9LVastLat	10LGasMed	11LTibAnt	12lTibPost	13LPeroneusLong	14LSol	15LExtDigLong	16LFlexDigLong	17RAddLong	18RGlutMax	19RGlutMed	20RIliopsoas	21RSemiMemb	22RBicFemLong	23RRecFem	24RVastMed	25RVastLat	26RGasMed	27RTibAnt	28RTibPost	29RPeroneusLong	30RSol	31RExtDigLong	32RFlexDigLong
31.24	0.011749	-0.10849	-0.001526	0.003052	0.011139	0.040588	-0.019989	0.001221	-0.015411	-0.9845	0.00885	0.21118	-0.11932	-0.068207	-0.037994	0.58579	-0.071716	-0.099945	0.18982	0.001831	0.092773	0.003357	-0.13809	0.074921	0.007782	0.010071	0.29114	0.002441	0.16464	-0.097351	0.002899	-0.018616
31.241	-0.004272	-0.094452	0.073853	-0.009308	-0.024872	0.14603	-0.032349	0.007935	-0.024109	-0.551	0.002441	0.49774	0.16571	0.15335	-0.02121	0.084686	-0.059662	-0.09613	0.18066	-0.033417	0.092163	0.005035	0.05127	0.044403	0.003815	0.010071	0.090637	0.004272	0.21255	-0.099335	-0.00473	-0.015564
31.242	-0.010681	-0.12009	-0.01358	0.010529	-0.087738	0.1828	-0.019684	0.014496	-0.012207	-0.001984	-0.015717	-0.3305	0.21896	0.13199	-0.03418	0.1709	-0.022583	-0.10834	0.16693	-0.0383	0.096741	0.00824	0.23148	0.061493	-0.007782	0.010071	-0.66834	0.00061	0.20676	-0.051422	-0.004425	-0.005188
31.243	-0.00946	-0.13184	-0.086517	-0.009155	-0.1059	0.17242	-0.030212	0.007629	-0.000305	0.35233	-0.02243	-0.034485	0.13016	0.76691	-0.007629	0.35278	0.023651	-0.10864	0.11673	0.001221	0.10834	0.011292	-0.080109	0.039368	-0.014191	0.004425	-0.99396	-0.00061	0.091248	-0.1091	-0.004578	-0.00824
31.244	-0.003204	-0.16419	-0.14023	-0.023956	-0.048676	0.24078	-0.013275	0.004883	0.020142	0.62363	-0.015564	0.16846	0.046539	1.0187	0.031586	0.13153	0.044708	-0.1001	0.097504	0.016022	0.10193	0.01297	-0.36896	-0.032196	-0.029144	-0.005493	-0.64133	0.000305	0.022888	-0.11597	0.001221	-0.008545
31.245	0.002136	-0.17456	-0.094604	0.011597	-0.020447	0.025177	0.0383	0.002594	0.080566	0.46432	-0.001831	-0.056915	0.23987	0.15106	0.022583	-0.13443	0.041962	-0.051422	0.18082	-0.04425	0.11444	0.031738	-0.19608	-0.043793	-0.000916	-0.001984	-0.19638	-0.000153	0.079803	-0.045624	-0.005341	-0.013428
31.246	0.011139	-0.15915	-0.082397	0	0.082092	-0.089111	0.062561	0.003052	0.088043	0.1091	0.00351	0.013123	0.043945	-0.039978	-0.012512	-0.061188	0.033875	-0.082092	0.1503	-0.099487	0.11459	0.026245	0.034485	0.006866	0.012817	-0.001831	-0.6575	-0.004425	0.066681	-0.023193	-0.00885	-0.011902
31.247	0.011292	-0.11856	-0.033875	-0.013275	0.056763	0.17624	0.004272	0.006561	0.065613	-0.15915	-0.000916	0.026093	0.002747	-0.19165	-0.078583	-0.072021	0.043335	-0.070953	0.16113	-0.083313	0.11688	0.029602	0.14633	0.001984	0.012054	-0.007629	-0.77026	0.001984	-0.027924	0.031433	-0.002441	-0.018463
31.248	0.014496	-0.065002	0.009918	-0.007324	0.012054	0.24353	0.012817	-0.001068	0.048676	-0.17807	0.009308	-0.003357	0.079651	-0.61462	-0.04715	-0.057526	0.029602	-0.077209	0.18875	-0.020447	0.13092	0.040283	0.38238	0.10269	0.00412	-0.008698	-0.39032	-0.001221	-0.10666	0.06012	0.006866	-0.006561
31.249	0.01709	-0.01358	0.042877	-0.001068	-0.004425	0.31082	0.024719	-0.000458	0.027008	-0.12421	0.016327	0.000916	-0.050964	-0.29816	-0.002899	-0.021667	0.013428	-0.08316	0.12909	0.047455	0.12848	0.043793	0.51102	0.12711	-0.00885	-0.01236	-0.24002	-0.006256	-0.12894	0.039978	-0.005798	-0.006714
31.25	0.007477	0.02182	0.030212	0.004272	0.012207	0.11566	0.04776	0	0.036316	0.058899	0.007172	0.012054	-0.13748	0.27313	0.001373	0.011292	0.026245	-0.12772	0.050812	0.12146	0.12985	0.022125	0.5542	0.10101	0.018616	-0.007019	0.30167	-0.006866	-0.12238	-0.004425	-0.004272	-0.004425
31.251	0.019379	0.053253	0.057526	0.000916	0.045471	-0.23727	0.030823	0	0.026855	0.24674	0.010223	-0.00351	-0.15442	0.22675	-0.00473	0.025177	-0.002136	-0.11139	0.11368	0.098572	0.12314	0.039215	0.55267	0.09552	0.059814	-0.010223	0.97946	-0.001984	-0.086365	0.087738	-0.004578	-0.000763
31.252	0.009003	0.045013	0.11765	-0.00061	0.079498	-0.25314	0.011749	-0.007019	0.033417	0.25818	0.011444	0.096283	-0.097198	0.008087	0.013733	-0.012512	0.002289	-0.037079	0.12634	-0.020447	0.11368	0.021973	0.46341	0.091858	0.036469	-0.008087	0.98129	-0.000916	-0.1181	0.087433	0.007019	0.001984
31.253	0.015411	0.14847	0.10071	-0.003662	0.067291	-0.32761	0.001984	-0.008392	0.05188	0.032043	0.028992	0.03952	0.015869	-0.10239	0.019989	-0.025635	-0.020752	-0.049286	0.070953	-0.001526	0.098877	0.031128	0.38605	0.14175	0.001984	-0.019073	0.81543	-0.00885	-0.10452	0.003967	-0.003662	0.005035
31.254	0.007477	0.22598	0.059357	0.010071	0.047302	-0.41519	0.013428	-0.00824	0.051117	-0.32013	0.002136	-0.1976	0.16647	-0.046387	0.016022	-0.2681	-0.018463	-0.099945	-0.024414	0.024567	0.083466	0.019684	0.41092	0.14481	0.009155	-0.023651	0.88959	-0.006409	-0.112	0.010986	-0.003357	0.000305
31.255	0	0.13062	-0.015717	-0.002441	0.027618	-0.31677	0.034332	-0.001678	0.029907	-0.46204	0.006104	0.038452	-0.063019	0.057373	-0.021667	0.16739	-0.018921	-0.1329	-0.10513	0.015717	0.076141	0.006714	0.28427	0.032654	-0.003967	-0.016785	0.7019	-0.001984	-0.087433	0.035858	-0.002594	-0.005493
31.256	-0.003815	0.14374	-0.049438	0.018463	-0.005493	-0.19867	0.042419	-0.000153	0.029144	-0.34485	0.019073	-0.032806	-0.19287	0.045929	-0.024261	0.19028	-0.003052	-0.1358	0.11414	0.023956	0.076599	-0.00351	0.23407	-0.006714	-0.005798	0	-0.08606	-0.002441	0.031433	-0.050507	0.003052	-0.005341
31.257	-0.002899	0.10391	0.004272	0.007935	-0.028076	-0.061646	0.028992	0.002289	0.031281	-0.23804	-0.006256	0.04364	-0.14725	0.18372	0.055084	-0.10712	0.023041	-0.12543	0.096741	0.034027	0.075073	0.000916	0.20096	-0.006256	-0.022278	0.005493	-0.53421	-0.003052	-0.023499	-0.056915	-0.001221	-0.010681
31.258	-0.024567	0.088654	0.13123	0.005646	-0.046082	-0.00946	0.041809	0.009918	0.017548	-0.51178	0.000153	0.085144	-0.34485	0.2594	0.12634	-0.68253	0.037384	-0.080719	0.32516	0.088043	0.074005	-0.011139	0.19623	0.001068	-0.031738	-0.000916	-0.24567	-0.006104	-0.12085	-0.058746	-0.002136	-0.010529
31.259	-0.009766	0.069733	0.094757	0.005951	-0.057831	-0.014038	0.044708	0.000763	0.012512	-0.51605	0.007782	-0.0383	-0.30991	0.41199	0.094299	0.43121	0.049896	-0.016174	0.112	0.10498	0.064087	-0.0177	0.24674	-0.041656	-0.026245	-0.012207	-0.055237	-0.006409	-0.063477	-0.080109	-0.005188	0.000153
31.26	-0.020599	0.042725	0.13886	-0.006104	-0.01297	-0.10269	0.037537	0.000153	0.010376	-0.066681	0.004272	-0.029755	-0.15305	0.26367	0.066528	-0.24887	0.051422	-0.009003	0.069885	0.00473	0.065002	-0.015564	0.28961	-0.030365	-0.003357	-0.010223	-0.18616	0.002289	0.029907	-0.063019	-0.007935	-0.002136
31.261	0.080261	0.05127	0.084534	-0.004883	0.005035	-0.11047	0.022278	-0.001221	0.016022	0.20081	-0.012817	-0.008545	-0.057831	-0.17029	0.022888	0.1355	0.059814	-0.012054	-0.048981	-0.074158	0.058136	-0.000305	0.29175	-0.002594	0.010223	-0.00885	-0.42267	-0.007019	0.007477	-0.063171	-0.010376	0.002747
31.262	0.028992	0.010071	0.039673	-0.007019	-0.004425	-0.003662	0.055847	0.010223	0.010834	0.26077	-0.01358	0.042419	0.015869	-0.41992	-0.039978	0.27252	0.042725	-0.014648	-0.095367	-0.059662	0.050659	0.001373	0.12146	0.00473	0.004272	-0.008698	-0.24658	-0.006409	-0.10742	-0.013428	-0.004272	0.009308
